<?xml version="1.0" encoding="UTF-8"?>
<svg width="21px" height="21px" viewBox="0 0 21 21" version="1.1" xmlns="http://www.w3.org/2000/svg" xmlns:xlink="http://www.w3.org/1999/xlink">
    <title>sign_out</title>
    <g id="页面-1" stroke="none" stroke-width="1" fill="none" fill-rule="evenodd">
        <g id="Me" transform="translate(-50.000000, -634.000000)" fill="#3CD7BA" fill-rule="nonzero">
            <g id="sign-out" transform="translate(33.500000, 622.825000)">
                <g id="sign_out" transform="translate(16.750000, 12.000000)">
                    <path d="M19.558,9.108 L13.904,3.465 C13.8007284,3.36087804 13.6601506,3.30231092 13.5135,3.30231092 C13.3668494,3.30231092 13.2262716,3.36087804 13.123,3.465 L12.342,4.246 C12.2385295,4.34737995 12.1802214,4.48614134 12.1802214,4.631 C12.1802214,4.77585866 12.2385295,4.91462005 12.342,5.016 L16.137,8.8 L4.95,8.8 C4.64624339,8.8 4.4,9.04624339 4.4,9.35 L4.4,10.45 C4.4,10.7537566 4.64624339,11 4.95,11 L16.137,11 L12.342,14.784 C12.237878,14.8872716 12.1793109,15.0278494 12.1793109,15.1745 C12.1793109,15.3211506 12.237878,15.4617284 12.342,15.565 L13.123,16.335 C13.2262716,16.439122 13.3668494,16.4976891 13.5135,16.4976891 C13.6601506,16.4976891 13.8007284,16.439122 13.904,16.335 L19.558,10.692 C19.7127617,10.5374309 19.7998074,10.3277299 19.8,10.109 L19.8,9.691 C19.7974656,9.47274446 19.7107724,9.26389261 19.558,9.108 Z M8.25,17.6 L2.2,17.6 L2.2,2.2 L8.25,2.2 C8.55375661,2.2 8.8,1.95375661 8.8,1.65 L8.8,0.55 C8.8,0.246243388 8.55375661,0 8.25,0 L2.2,0 C0.98497355,0 0,0.98497355 0,2.2 L0,17.6 C0,18.8150264 0.98497355,19.8 2.2,19.8 L8.25,19.8 C8.55375661,19.8 8.8,19.5537566 8.8,19.25 L8.8,18.15 C8.8,17.8462434 8.55375661,17.6 8.25,17.6 Z" id="Icon-color"></path>
                </g>
            </g>
        </g>
    </g>
</svg>