<?xml version="1.0" encoding="UTF-8"?>
<svg width="20px" height="20px" viewBox="0 0 20 20" version="1.1" xmlns="http://www.w3.org/2000/svg" xmlns:xlink="http://www.w3.org/1999/xlink">
    <title>编组</title>
    <defs>
        <linearGradient x1="-5.55630544%" y1="0%" x2="107.494358%" y2="95.1982491%" id="linearGradient-1">
            <stop stop-color="#82DCFF" offset="0%"></stop>
            <stop stop-color="#1ED69D" offset="100%"></stop>
        </linearGradient>
    </defs>
    <g id="页面-1" stroke="none" stroke-width="1" fill="none" fill-rule="evenodd">
        <g id="Inbox" transform="translate(-278.000000, -826.000000)">
            <g id="Inbox-导航" transform="translate(0.000000, 792.464000)">
                <g id="编组" transform="translate(279.214024, 35.000000)">
                    <path d="M16.1357952,17.2338096 L1.0979472,17.2338096 C0.4916352,17.2338096 6.72e-05,16.7420736 6.72e-05,16.1357616 L6.72e-05,6.8384736 L1.6800672,1.0979136 C1.6800672,0.4916016 2.1716352,3.36e-05 2.7779472,3.36e-05 L14.4557952,3.36e-05 C15.0622752,3.36e-05 15.5538432,0.4916016 15.5538432,1.0979136 L17.2338432,6.8384736 L17.2338432,16.1357616 C17.2338432,16.7420736 16.7422752,17.2338096 16.1357952,17.2338096 Z" id="Stroke-1" stroke="#000000" stroke-width="2" fill="url(#linearGradient-1)"></path>
                    <line x1="0" y1="6.8384736" x2="17.233776" y2="6.8384736" id="Stroke-3" stroke="#2B2B2B" stroke-width="2"></line>
                    <path d="M11.0104008,6.3344736 C11.0104008,7.6562976 9.9387288,8.7279696 8.6169048,8.7279696 C7.2950808,8.7279696 6.2234088,7.6562976 6.2234088,6.3344736" id="Stroke-5" stroke="#2B2B2B" stroke-width="2"></path>
                    <path d="M10.6242024,5.9984736 C10.6242024,7.1071056 9.7254024,8.0057376 8.6169384,8.0057376 C7.5083064,8.0057376 6.6096744,7.1071056 6.6096744,5.9984736 C6.6096744,4.8898416 7.5083064,3.9912096 8.6169384,3.9912096 C9.7254024,3.9912096 10.6242024,4.8898416 10.6242024,5.9984736" id="Fill-7" fill="url(#linearGradient-1)"></path>
                </g>
            </g>
        </g>
    </g>
</svg>