<?xml version="1.0" encoding="UTF-8"?>
<svg width="18px" height="18px" viewBox="0 0 18 18" version="1.1" xmlns="http://www.w3.org/2000/svg" xmlns:xlink="http://www.w3.org/1999/xlink">
    <title>icon_me</title>
    <defs>
        <path d="M9.6,1.06666667 C11.9564149,1.06666667 13.8666667,2.9769184 13.8666667,5.33333333 C13.8666667,7.68974827 11.9564149,9.6 9.6,9.6 C7.24358507,9.6 5.33333333,7.68974827 5.33333333,5.33333333 C5.33333333,2.9769184 7.24358507,1.06666667 9.6,1.06666667 L9.6,1.06666667 Z M9.6,3.2 C8.42179253,3.2 7.46666667,4.15512587 7.46666667,5.33333333 C7.46666667,6.5115408 8.42179253,7.46666667 9.6,7.46666667 C10.7782075,7.46666667 11.7333333,6.5115408 11.7333333,5.33333333 C11.7333333,4.15512587 10.7782075,3.2 9.6,3.2 L9.6,3.2 Z M9.6,10.6666667 C12.448,10.6666667 18.1333333,12.0853333 18.1333333,14.9333333 L18.1333333,18.1333333 L1.06666667,18.1333333 L1.06666667,14.9333333 C1.06666667,12.0853333 6.752,10.6666667 9.6,10.6666667 L9.6,10.6666667 Z M9.6,12.6933333 C6.432,12.6933333 3.09333333,14.2506667 3.09333333,14.9333333 L3.09333333,16.1066667 L16.1066667,16.1066667 L16.1066667,14.9333333 C16.1066667,14.2506667 12.768,12.6933333 9.6,12.6933333 Z" id="path-1"></path>
    </defs>
    <g id="页面-1" stroke="none" stroke-width="1" fill="none" fill-rule="evenodd">
        <g id="Home" transform="translate(-359.000000, -850.000000)">
            <g id="Home导航" transform="translate(0.000000, 817.000000)">
                <g id="icon_me" transform="translate(358.850024, 32.680000)">
                    <rect id="Base" x="0" y="0" width="19.2" height="19.2"></rect>
                    <mask id="mask-2" fill="white">
                        <use xlink:href="#path-1"></use>
                    </mask>
                    <use id="Shape" fill="#000000" fill-rule="nonzero" xlink:href="#path-1"></use>
                    <g id="编组" mask="url(#mask-2)" fill="#2D2D2D">
                        <g id="Color/02">
                            <rect id="Color" x="0" y="0" width="19.2" height="19.2"></rect>
                        </g>
                    </g>
                </g>
            </g>
        </g>
    </g>
</svg>