<?xml version="1.0" encoding="UTF-8"?>
<svg width="51px" height="50px" viewBox="0 0 51 50" version="1.1" xmlns="http://www.w3.org/2000/svg" xmlns:xlink="http://www.w3.org/1999/xlink">
    <title>icon_pay</title>
    <defs>
        <linearGradient x1="-5.28888679%" y1="0%" x2="107.21761%" y2="95.1982491%" id="linearGradient-1">
            <stop stop-color="#82DCFF" offset="0%"></stop>
            <stop stop-color="#1ED69D" offset="100%"></stop>
        </linearGradient>
        <path d="M17.7777778,2.22222222 L17.7777778,4.44444444 L13.3333333,4.44444444 L13.3333333,2.22222222 L17.7777778,2.22222222 L17.7777778,2.22222222 Z M6.66666667,2.22222222 L6.66666667,8.88888889 L2.22222222,8.88888889 L2.22222222,2.22222222 L6.66666667,2.22222222 L6.66666667,2.22222222 Z M17.7777778,11.1111111 L17.7777778,17.7777778 L13.3333333,17.7777778 L13.3333333,11.1111111 L17.7777778,11.1111111 L17.7777778,11.1111111 Z M6.66666667,15.5555556 L6.66666667,17.7777778 L2.22222222,17.7777778 L2.22222222,15.5555556 L6.66666667,15.5555556 L6.66666667,15.5555556 Z M20,0 L11.1111111,0 L11.1111111,6.66666667 L20,6.66666667 L20,0 L20,0 Z M8.88888889,0 L0,0 L0,11.1111111 L8.88888889,11.1111111 L8.88888889,0 L8.88888889,0 Z M20,8.88888889 L11.1111111,8.88888889 L11.1111111,20 L20,20 L20,8.88888889 L20,8.88888889 Z M8.88888889,13.3333333 L0,13.3333333 L0,20 L8.88888889,20 L8.88888889,13.3333333 Z" id="path-2"></path>
    </defs>
    <g id="页面-1" stroke="none" stroke-width="1" fill="none" fill-rule="evenodd">
        <g id="Home" transform="translate(-182.000000, -819.000000)">
            <g id="Home导航" transform="translate(0.000000, 817.000000)">
                <g id="icon_pay" transform="translate(182.060241, 2.000000)">
                    <ellipse id="椭圆形" fill="url(#linearGradient-1)" cx="24.939759" cy="25" rx="24.939759" ry="25"></ellipse>
                    <g id="#1" transform="translate(14.939759, 15.000000)">
                        <rect id="Base" opacity="0.806012835" x="0" y="0" width="20" height="20"></rect>
                        <mask id="mask-3" fill="white">
                            <use xlink:href="#path-2"></use>
                        </mask>
                        <use id="Shape" fill="#FFFFFF" fill-rule="nonzero" xlink:href="#path-2"></use>
                    </g>
                </g>
            </g>
        </g>
    </g>
</svg>